<?xml version="1.0" encoding="UTF-8" standalone="no"?>
<!DOCTYPE svg PUBLIC "-//W3C//DTD SVG 20010904//EN"
              "http://www.w3.org/TR/2001/REC-SVG-20010904/DTD/svg10.dtd">

<svg xmlns="http://www.w3.org/2000/svg"
     width="1.19333in" height="1.22in"
     viewBox="0 0 358 366">
  <path id="Unnamed"
        fill="none" stroke="black" stroke-width="1"
        d="M 102.00,234.03
           C 102.00,234.03 100.72,230.97 100.72,230.97
             100.72,230.97 100.00,228.06 100.00,228.06
             100.00,228.06 99.00,225.00 99.00,225.00
             99.00,225.00 97.94,222.00 97.94,222.00
             97.94,222.00 97.25,218.97 97.25,218.97
             97.25,218.97 96.66,216.06 96.66,216.06
             96.66,216.06 96.00,213.06 96.00,213.06
             96.00,213.06 95.72,209.91 95.72,209.91
             95.72,209.91 95.69,206.97 95.69,206.94
             95.69,206.91 95.75,204.03 95.75,204.03
             95.75,204.03 95.88,201.00 95.88,201.00
             95.88,201.00 95.91,198.00 95.91,198.00
             95.91,198.00 96.06,195.03 96.06,195.03
             96.06,195.03 96.97,192.06 96.97,192.06
             96.97,192.06 97.12,189.00 97.12,189.00
             97.12,189.00 97.75,185.94 97.75,185.94
             97.75,185.94 98.53,182.97 98.53,182.97
             98.53,182.97 98.44,179.91 98.44,179.91
             98.44,179.91 99.53,176.88 99.53,176.88
             99.53,176.88 100.47,174.03 100.47,174.00
             100.47,173.97 101.62,170.94 101.62,170.94
             101.62,170.94 102.53,167.91 102.56,167.91
             102.59,167.91 104.09,165.06 104.09,165.06
             104.09,165.06 105.09,162.03 105.09,162.03
             105.09,162.03 107.25,159.00 107.25,159.00
             107.25,159.00 108.47,156.00 108.47,156.00
             108.47,156.00 110.72,152.97 110.72,152.97
             110.72,152.97 112.81,150.06 112.81,150.06
             112.81,150.06 114.03,148.91 114.03,148.91
             114.03,148.91 115.44,146.91 115.44,146.91
             115.44,146.91 116.97,144.81 117.00,144.81
             117.03,144.81 118.41,143.94 118.41,143.94
             118.41,143.94 119.91,142.06 119.94,142.06
             119.97,142.06 120.97,140.94 120.97,140.94
             120.97,140.94 122.94,139.03 122.94,139.03
             122.94,139.03 124.59,138.00 124.59,138.00
             124.59,138.00 126.09,138.34 126.09,138.34
             126.09,138.34 127.97,140.91 127.97,140.91
             127.97,140.91 128.06,143.94 128.06,143.94
             128.06,143.94 128.09,147.00 128.09,146.97
             128.09,146.94 127.84,149.88 127.84,149.88
             127.84,149.88 127.94,152.94 127.94,152.94
             127.94,152.94 127.97,156.03 127.97,156.03
             127.97,156.03 127.97,158.97 127.97,158.97
             127.97,158.97 127.94,161.91 127.94,161.91
             127.94,161.91 127.97,164.94 127.97,164.94
             127.97,164.94 128.78,168.00 128.78,168.00
             128.78,168.00 129.03,170.97 129.03,170.97
             129.03,170.97 129.81,173.97 129.81,173.97
             129.81,173.97 130.91,176.97 130.91,176.97
             130.91,176.97 132.03,178.22 132.03,178.19
             132.03,178.16 133.91,177.78 133.91,177.78
             133.91,177.78 133.97,175.47 133.97,175.47
             133.97,175.47 134.00,172.91 134.00,172.88
             134.00,172.84 134.00,169.44 134.00,169.44
             134.00,169.44 134.88,166.06 134.88,166.06
             134.88,166.06 136.38,162.66 136.38,162.66
             136.38,162.66 137.38,159.69 137.38,159.69
             137.38,159.69 138.91,156.19 138.91,156.19
             138.91,156.19 140.25,153.00 140.25,153.00
             140.25,153.00 141.94,150.66 141.94,150.66
             141.94,150.66 144.03,147.81 144.03,147.81
             144.03,147.81 145.62,145.81 145.62,145.81
             145.62,145.81 147.09,144.06 147.09,144.06
             147.09,144.06 148.62,142.19 148.66,142.19
             148.69,142.19 150.62,139.59 150.66,139.59
             150.69,139.59 152.31,137.50 152.31,137.50
             152.31,137.50 154.34,135.03 154.34,135.03
             154.34,135.03 156.16,133.12 156.16,133.12
             156.16,133.12 158.38,130.81 158.38,130.81
             158.38,130.81 161.00,128.09 161.00,128.09
             161.00,128.09 163.03,124.91 163.03,124.91
             163.03,124.91 164.09,122.53 164.09,122.53
             164.09,122.53 165.50,119.09 165.50,119.09
             165.50,119.09 167.00,116.47 167.00,116.44
             167.00,116.41 167.56,113.78 167.56,113.78
             167.56,113.78 168.00,110.03 168.00,110.03
             168.00,110.03 168.09,106.47 168.09,106.47
             168.09,106.47 168.03,102.94 168.03,102.94
             168.03,102.94 167.50,99.62 167.50,99.62
             167.50,99.62 167.12,97.91 167.09,97.94
             167.06,97.97 165.66,94.62 165.66,94.66
             165.66,94.69 164.84,92.62 164.84,92.62
             164.84,92.62 163.97,90.91 163.97,90.91
             163.97,90.91 162.00,87.84 162.00,87.84
             162.00,87.84 160.25,86.00 160.25,86.00
             160.25,86.00 158.84,84.12 158.84,84.12
             158.84,84.12 156.88,81.69 156.88,81.69
             156.88,81.69 156.44,79.16 156.44,79.16
             156.44,79.16 158.28,77.22 158.28,77.22
             158.28,77.22 160.34,77.16 160.34,77.16
             160.34,77.16 163.06,77.66 163.06,77.66
             163.06,77.66 165.62,77.72 165.62,77.72
             165.62,77.72 169.00,77.81 169.00,77.81
             169.00,77.81 173.00,78.94 173.00,78.94
             173.00,78.94 176.22,79.88 176.25,79.88
             176.28,79.88 179.91,80.84 179.91,80.81
             179.91,80.78 183.25,81.97 183.25,81.97
             183.25,81.97 186.97,83.78 186.97,83.78
             186.97,83.78 191.44,85.28 191.44,85.28
             191.44,85.28 195.22,87.19 195.22,87.22
             195.22,87.25 198.06,88.97 198.06,88.97
             198.06,88.97 200.81,91.09 200.81,91.09
             200.81,91.09 203.62,93.41 203.62,93.41
             203.62,93.41 205.84,95.69 205.84,95.69
             205.84,95.69 208.59,98.31 208.59,98.31
             208.59,98.31 210.47,101.22 210.47,101.22
             210.47,101.22 212.16,103.81 212.16,103.81
             212.16,103.81 214.03,107.12 214.06,107.12
             214.09,107.12 215.06,109.44 215.12,109.56
             215.19,109.69 216.50,112.72 216.53,112.75
             216.56,112.78 217.72,116.34 217.72,116.34
             217.72,116.34 218.78,119.84 218.78,119.84
             218.78,119.84 219.59,122.66 219.59,122.66
             219.59,122.66 220.28,126.06 220.28,126.06
             220.28,126.06 220.59,129.12 220.59,129.12
             220.59,129.12 220.59,132.00 220.59,132.00
             220.59,132.00 220.62,135.12 220.62,135.12
             220.62,135.12 220.72,137.97 220.69,137.97
             220.66,137.97 220.50,141.00 220.50,141.00
             220.50,141.00 220.41,144.03 220.41,144.03
             220.41,144.03 220.16,146.97 220.16,146.97
             220.16,146.97 219.50,149.94 219.50,149.94
             219.50,149.94 219.03,152.94 219.03,152.94
             219.03,152.94 218.50,156.00 218.50,156.00
             218.50,156.00 218.22,158.97 218.22,158.97
             218.22,158.97 217.41,162.00 217.41,162.00
             217.41,162.00 217.34,164.78 217.34,164.78
             217.34,164.78 216.88,167.91 216.88,167.91
             216.88,167.91 217.00,171.03 217.00,171.03
             217.00,171.03 217.25,173.72 217.25,173.72
             217.25,173.72 218.00,177.12 218.00,177.12
             218.00,177.12 218.78,180.00 218.78,180.00
             218.78,180.00 221.56,182.91 221.56,182.91
             221.56,182.91 224.94,184.03 224.94,184.03
             224.94,184.03 228.00,184.28 228.03,184.28
             228.06,184.28 230.84,184.12 230.88,184.12
             230.91,184.12 234.00,183.03 234.00,183.03
             234.00,183.03 236.62,180.00 236.62,180.00
             236.62,180.00 239.16,177.31 239.16,177.31
             239.16,177.31 241.12,174.81 241.12,174.81
             241.12,174.81 242.12,172.06 242.12,172.06
             242.12,172.06 243.88,170.91 243.88,170.91
             243.88,170.91 246.03,171.84 246.03,171.84
             246.03,171.84 247.75,173.91 247.75,173.91
             247.75,173.91 249.31,176.59 249.31,176.59
             249.31,176.59 251.06,179.50 251.06,179.53
             251.06,179.56 252.91,182.12 252.91,182.12
             252.91,182.12 254.41,184.91 254.41,184.91
             254.41,184.91 256.50,187.97 256.47,187.97
             256.44,187.97 257.50,191.00 257.50,191.00
             257.50,191.00 258.66,194.38 258.66,194.38
             258.66,194.38 259.03,197.59 259.09,197.69
             259.16,197.78 260.03,200.94 260.03,200.94
             260.03,200.94 260.78,203.91 260.75,203.94
             260.72,203.97 260.72,206.81 260.72,206.84
             260.72,206.88 260.94,209.94 260.94,209.94
             260.94,209.94 261.12,212.97 261.12,212.97
             261.12,212.97 260.97,215.81 260.97,215.81
             260.97,215.81 260.56,218.91 260.56,218.91
             260.56,218.91 260.09,221.97 260.09,221.97
             260.09,221.97 259.72,224.94 259.72,224.94
             259.72,224.94 259.25,227.97 259.25,227.97
             259.25,227.97 258.91,231.03 258.91,231.03
             258.91,231.03 258.16,233.91 258.16,233.91
             258.16,233.91 257.25,236.78 257.25,236.81
             257.25,236.84 256.28,240.00 256.28,240.00
             256.28,240.00 255.19,243.00 255.19,243.00
             255.19,243.00 253.94,245.81 253.94,245.81
             253.94,245.81 252.41,248.81 252.34,248.81
             252.28,248.81 250.06,251.44 250.06,251.44
             250.06,251.44 248.00,254.47 248.03,254.47
             248.06,254.47 246.31,257.25 246.31,257.25
             246.31,257.25 243.75,260.25 243.66,260.34
             243.56,260.44 240.62,263.50 240.62,263.50
             240.62,263.50 237.88,266.47 237.88,266.47
             237.88,266.47 234.28,269.41 234.31,269.41
             234.34,269.41 231.53,271.62 231.53,271.62
             231.53,271.62 228.44,273.31 228.44,273.31
             228.44,273.31 225.31,275.41 225.31,275.41
             225.31,275.41 222.19,277.72 222.19,277.72
             222.19,277.72 219.16,279.12 219.16,279.12
             219.16,279.12 216.38,280.53 216.38,280.53
             216.38,280.53 213.09,281.69 213.09,281.69
             213.09,281.69 209.84,283.50 209.84,283.50
             209.84,283.50 205.97,284.50 205.94,284.50
             205.91,284.50 201.53,285.72 201.50,285.75
             201.47,285.78 197.72,286.59 197.72,286.59
             197.72,286.59 193.94,287.16 193.94,287.16
             193.94,287.16 190.47,287.81 190.47,287.81
             190.47,287.81 186.34,287.84 186.34,287.84
             186.34,287.84 183.09,288.00 183.09,288.00
             183.09,288.00 180.28,287.91 180.28,287.91
             180.28,287.91 177.28,287.03 177.00,287.03
             176.72,287.03 173.97,286.66 173.97,286.66
             173.97,286.66 170.84,286.44 170.84,286.44
             170.84,286.44 168.22,286.22 168.19,286.22
             168.16,286.22 165.12,286.09 165.12,286.09
             165.12,286.09 162.06,285.28 162.06,285.28
             162.06,285.28 159.03,284.72 159.03,284.72
             159.03,284.72 156.06,284.16 156.06,284.16
             156.06,284.16 152.91,283.00 152.91,283.00
             152.91,283.00 150.12,281.94 150.12,281.94
             150.12,281.94 147.06,280.94 147.03,280.97
             147.00,281.00 144.09,279.75 144.09,279.75
             144.09,279.75 141.22,278.72 141.22,278.72
             141.22,278.72 138.25,276.84 138.19,276.97
             138.12,277.09 135.16,275.09 135.16,275.09
             135.16,275.09 132.12,273.44 132.12,273.44
             132.12,273.44 128.97,271.22 128.97,271.22
             128.97,271.22 126.88,269.59 126.88,269.59
             126.88,269.59 124.31,267.38 124.31,267.38
             124.31,267.38 122.28,265.38 122.28,265.38
             122.28,265.38 119.56,262.69 119.56,262.69
             119.56,262.69 117.47,260.66 117.47,260.62
             117.47,260.59 115.41,258.47 115.41,258.44
             115.41,258.41 113.88,256.19 113.88,256.19
             113.88,256.19 111.69,253.34 111.69,253.34
             111.69,253.34 109.94,250.47 109.94,250.47
             109.94,250.47 107.81,247.38 107.81,247.34
             107.81,247.31 106.34,244.78 106.34,244.78
             106.34,244.78 105.06,241.84 105.06,241.84
             105.06,241.84 103.91,239.28 103.91,239.28
             103.91,239.28 102.91,236.75 102.91,236.75" />
</svg>
