<?xml version="1.0" encoding="UTF-8" standalone="no"?>
<!DOCTYPE svg PUBLIC "-//W3C//DTD SVG 20010904//EN"
              "http://www.w3.org/TR/2001/REC-SVG-20010904/DTD/svg10.dtd">

<svg xmlns="http://www.w3.org/2000/svg"
     width="0.393333in" height="0.393333in"
     viewBox="0 0 118 118">
  <path id="Unnamed"
        fill="none" stroke="black" stroke-width="1"
        d="M 30.00,51.02
           C 30.00,51.02 30.24,51.03 30.49,51.03
             30.75,51.03 31.00,51.02 31.00,51.02
             31.00,51.02 31.00,51.34 31.00,51.95
             31.00,52.19 31.00,52.66 31.00,52.99
             31.00,53.34 31.00,53.57 31.00,54.00
             31.00,54.29 31.00,54.67 31.00,54.99
             31.00,55.30 31.00,55.67 31.00,56.00
             31.00,56.33 31.00,56.54 31.00,56.88
             31.00,57.28 31.00,57.68 31.00,58.09
             31.00,58.41 31.00,58.74 31.00,59.07
             31.00,59.39 31.00,59.71 31.00,60.03
             31.00,60.36 31.00,60.69 31.00,61.02
             31.00,61.35 31.00,61.68 31.00,62.01
             31.00,62.35 31.00,62.69 31.00,63.02
             31.00,63.36 31.00,63.70 31.00,64.03
             31.00,64.39 31.00,64.73 31.00,65.06
             31.00,65.42 31.00,65.77 31.00,66.09
             31.00,66.45 30.99,66.70 30.99,67.01
             30.99,67.31 31.00,67.76 31.00,68.00
             31.00,68.70 31.00,69.00 31.00,69.00
             31.00,69.00 31.50,69.00 32.01,69.00
             32.50,69.00 33.00,69.00 33.00,69.00
             33.00,69.00 33.00,68.64 33.00,68.03
             33.00,67.77 32.99,67.34 32.99,67.01
             32.99,66.66 33.00,66.41 33.00,65.99
             33.00,65.70 33.00,65.39 33.00,65.07
             33.00,64.76 33.00,64.44 33.00,64.12
             33.00,63.79 33.00,63.46 33.00,63.12
             33.00,62.73 33.00,62.32 33.00,61.91
             33.00,61.59 33.00,61.27 33.00,60.94
             33.00,60.62 33.00,60.29 33.00,59.96
             33.00,59.63 33.00,59.30 33.00,58.97
             33.00,58.64 33.00,58.31 33.00,57.98
             33.00,57.64 33.00,57.31 33.00,56.98
             33.00,56.64 33.00,56.30 33.00,55.97
             33.00,55.61 33.00,55.32 33.00,54.99
             33.00,54.63 32.99,54.33 32.99,54.00
             32.99,53.64 32.99,53.30 32.99,52.99
             32.99,52.70 33.01,52.25 33.01,52.01
             33.01,51.32 33.00,51.00 33.00,51.00
             33.00,51.00 32.50,51.00 32.00,51.00
             31.50,51.00 31.00,51.00 31.00,51.00
             31.00,51.00 31.00,50.50 31.00,50.01
             31.00,49.51 31.00,49.00 31.00,49.00
             31.00,49.00 30.40,49.00 30.00,49.00
             29.51,49.00 29.48,49.00 28.99,49.00
             28.60,49.00 28.00,49.00 28.00,49.00
             28.00,49.00 27.91,49.28 27.74,49.77
             27.67,50.01 27.60,50.18 27.49,50.51
             27.41,50.75 27.31,51.06 27.22,51.35
             27.13,51.60 27.03,51.92 26.94,52.20
             26.85,52.44 26.77,52.70 26.68,52.97
             26.60,53.21 26.51,53.47 26.42,53.73
             26.34,53.99 26.25,54.24 26.17,54.50
             26.06,54.84 25.94,55.19 25.82,55.54
             25.74,55.79 25.65,56.05 25.57,56.30
             25.47,56.59 25.38,56.88 25.28,57.17
             25.19,57.44 25.10,57.72 25.00,58.00
             24.91,58.29 24.81,58.58 24.72,58.87
             24.64,59.08 24.57,59.29 24.50,59.50
             24.41,59.78 24.32,60.06 24.23,60.34
             24.12,60.66 24.02,60.97 23.91,61.28
             23.80,61.61 23.69,61.94 23.59,62.25
             23.48,62.59 23.37,62.91 23.27,63.22
             23.17,63.51 23.08,63.79 22.99,64.06
             22.87,64.40 22.77,64.72 22.67,65.02
             22.57,65.30 22.49,65.55 22.41,65.78
             22.33,66.02 22.26,66.23 22.20,66.41
             22.07,66.80 22.00,67.02 22.00,67.02
             22.00,67.02 21.89,66.66 21.79,66.40
             21.70,66.17 21.67,66.17 21.52,65.78
             21.43,65.54 21.35,65.27 21.23,64.98
             21.13,64.71 21.08,64.37 20.97,64.07
             20.89,63.86 20.81,63.46 20.72,63.23
             20.62,62.98 20.51,62.55 20.40,62.28
             20.29,62.01 20.18,61.56 20.07,61.28
             19.94,60.96 19.86,60.57 19.73,60.23
             19.63,59.97 19.60,59.79 19.50,59.52
             19.40,59.26 19.37,59.15 19.27,58.88
             19.17,58.64 19.09,58.24 19.00,58.00
             18.90,57.75 18.81,57.39 18.71,57.14
             18.59,56.83 18.52,56.51 18.40,56.20
             18.30,55.93 18.22,55.69 18.12,55.42
             17.99,55.08 17.96,54.82 17.83,54.49
             17.70,54.15 17.66,54.06 17.53,53.73
             17.41,53.43 17.40,53.30 17.29,53.01
             17.18,52.74 17.14,52.46 17.04,52.21
             16.95,51.98 16.82,51.50 16.73,51.29
             16.63,51.03 16.52,50.75 16.43,50.52
             16.38,50.39 16.25,49.86 16.17,49.64
             16.06,49.39 16.22,49.78 16.17,49.66
             15.90,48.97 16.00,49.01 16.00,49.01
             16.00,49.01 15.47,49.01 15.01,49.01
             14.57,49.01 14.19,49.00 14.01,49.00
             13.64,49.00 13.50,49.00 13.01,49.00
             12.68,49.00 12.30,49.01 12.01,49.01
             11.40,49.01 11.00,49.00 11.00,49.00
             11.00,49.00 11.00,49.36 11.00,49.98
             10.99,50.22 10.98,50.67 10.98,50.99
             10.98,51.35 10.99,51.60 10.99,52.03
             10.99,52.34 10.99,52.66 10.99,53.00
             10.99,53.33 11.00,53.64 11.00,54.00
             11.00,54.32 11.00,54.67 11.00,55.01
             11.00,55.41 11.00,55.66 11.00,56.08
             11.00,56.39 11.00,56.72 11.00,57.04
             11.00,57.36 11.00,57.69 11.00,58.01
             11.00,58.33 11.00,58.66 11.00,58.98
             11.00,59.31 11.00,59.64 11.00,59.97
             11.00,60.30 11.00,60.63 11.00,60.95
             11.00,61.29 11.00,61.62 11.00,61.95
             11.00,62.29 11.00,62.63 11.00,62.96
             11.00,63.31 11.00,63.65 11.00,63.98
             11.00,64.34 11.00,64.69 11.00,65.02
             11.00,65.38 10.99,65.71 10.99,66.03
             10.99,66.39 10.99,66.70 10.99,67.01
             10.99,67.31 10.99,67.78 10.99,68.02
             10.99,68.73 11.00,69.00 11.00,69.00
             11.00,69.00 2.00,75.00 2.00,75.00
             2.00,75.00 2.00,74.37 2.00,74.00
             2.00,73.64 1.99,73.66 1.99,72.99
             1.99,72.74 2.00,72.30 2.00,72.01
             2.00,71.71 2.00,71.35 2.00,71.01
             2.00,70.69 2.00,70.36 2.00,70.01
             2.00,69.68 2.00,69.38 2.00,69.02
             2.00,68.69 2.00,68.37 2.00,68.02
             2.00,67.69 2.00,67.37 2.00,67.02
             2.00,66.69 2.00,66.36 2.00,66.01
             2.00,65.68 2.00,65.34 2.00,65.00
             2.00,64.67 2.00,64.34 2.00,64.00
             2.00,63.68 2.00,63.34 2.00,63.01
             2.00,62.68 2.00,62.34 2.00,62.00
             2.00,61.68 2.00,61.35 2.00,61.01
             2.00,60.69 2.00,60.36 2.00,60.03
             2.00,59.70 2.00,59.37 2.00,59.04
             2.00,58.71 2.00,58.37 2.00,58.03
             2.00,57.71 2.00,57.38 2.00,57.05
             2.00,56.72 2.00,56.39 2.00,56.06
             2.00,55.73 2.00,55.41 2.00,55.09
             2.00,54.75 2.00,54.42 2.00,54.09
             2.00,53.68 2.00,53.27 2.00,52.87
             2.00,52.52 2.00,52.17 2.00,51.83
             2.00,51.50 2.00,51.17 2.00,50.85
             2.00,50.52 2.00,50.19 2.00,49.86
             2.00,49.54 2.00,49.22 2.00,48.90
             2.00,48.59 2.00,48.28 2.00,47.97
             2.00,47.64 2.00,47.31 2.00,46.99
             2.00,46.65 2.00,46.32 2.00,46.00
             2.00,45.68 2.00,45.32 2.00,45.01
             2.00,44.61 2.00,44.32 2.00,43.95
             2.00,43.61 1.98,43.30 1.98,42.98
             1.98,42.65 1.98,42.29 1.98,41.99
             1.98,41.57 1.99,41.34 1.99,41.00
             1.99,40.67 1.99,40.68 1.99,40.43
             1.99,40.12 1.99,40.01 1.99,39.73
             1.99,39.45 2.00,39.00 2.00,39.00
             2.00,39.00 2.33,39.00 2.93,39.00
             3.17,39.00 3.47,39.00 3.81,39.00
             4.11,39.00 4.61,39.00 4.97,39.00
             5.26,39.00 5.66,38.99 5.99,38.99
             6.29,38.99 6.62,38.99 6.95,38.99
             7.27,38.99 7.60,38.99 7.95,38.99
             8.28,38.99 8.61,38.99 8.96,38.99
             9.29,38.99 9.63,38.99 9.98,38.99
             10.31,38.99 10.64,38.99 10.99,38.99
             11.32,38.99 11.66,38.99 12.00,38.99
             12.34,38.99 12.68,38.99 13.02,38.99
             13.35,38.99 13.68,38.99 14.02,38.99
             14.35,38.99 14.68,38.99 15.01,38.99
             15.34,38.99 15.67,38.99 16.01,38.99
             16.34,38.99 16.67,38.99 17.00,38.99
             17.33,38.99 17.66,38.99 18.00,38.99
             18.33,38.99 18.66,38.99 18.99,38.99
             19.32,38.99 19.65,38.99 19.98,38.99
             20.31,38.99 20.63,38.99 20.96,38.99
             21.29,38.99 21.62,38.99 21.95,38.99
             22.28,39.00 22.61,39.00 22.94,39.00
             23.27,39.00 23.61,39.00 23.94,39.00
             24.27,39.00 24.59,39.00 24.92,39.00
             25.25,39.00 25.58,39.00 25.90,39.00
             26.32,39.00 26.73,39.00 27.14,39.00
             27.49,39.00 27.83,39.00 28.17,39.00
             28.49,39.00 28.81,39.00 29.12,39.00
             29.42,39.00 29.73,39.00 30.02,39.00
             30.35,39.00 30.67,39.00 30.98,39.00
             31.32,39.00 31.66,39.00 31.99,39.00
             32.32,39.00 32.64,39.00 32.95,39.00
             33.28,39.00 33.60,39.00 33.92,39.00
             34.33,39.00 34.73,39.00 35.11,39.00
             35.45,39.00 35.78,39.00 36.10,39.00
             36.41,39.00 36.71,39.00 36.99,39.00
             37.43,39.00 37.66,38.99 38.01,38.99
             38.32,38.99 38.77,39.00 39.01,39.00
             39.64,39.00 40.00,39.00 40.00,39.00
             40.00,39.00 39.99,39.34 39.99,40.00
             39.99,40.24 39.99,40.71 39.99,40.99
             39.99,41.37 39.99,41.61 39.99,42.02
             39.99,42.36 39.99,42.69 39.99,43.02
             39.99,43.34 39.99,43.73 39.99,44.00
             39.99,44.61 39.99,45.02 39.99,45.02
             39.99,45.02 40.36,45.00 41.01,45.00
             41.30,45.00 41.66,45.01 42.01,45.01
             42.33,45.01 42.69,45.01 43.01,45.01
             43.33,45.01 43.72,45.02 43.99,45.02
             44.60,45.01 44.99,45.01 44.99,45.01
             44.99,45.01 44.99,45.40 44.99,46.00
             44.99,46.25 44.99,46.66 44.99,46.98
             44.99,47.29 44.99,47.64 44.99,47.99
             44.99,48.31 44.99,48.65 44.99,49.00
             44.99,49.39 44.99,49.59 44.99,50.01
             44.99,50.35 44.99,50.66 44.99,51.01
             44.99,51.33 44.99,51.68 44.99,52.00
             44.99,52.33 44.99,52.69 44.99,53.00
             44.99,53.31 44.99,53.71 44.99,54.00
             44.99,54.42 44.99,54.65 44.99,55.01
             44.99,55.34 44.99,55.76 44.99,56.01
             44.99,56.62 44.99,56.99 44.99,56.99
             44.99,56.99 44.51,56.99 44.02,56.99
             43.51,56.99 42.99,56.99 42.99,56.99
             42.99,56.99 43.00,57.57 43.00,57.99
             43.00,58.29 42.99,58.56 42.99,59.00
             42.99,59.30 42.99,59.62 42.99,59.95
             42.99,60.27 42.99,60.67 42.99,61.00
             42.99,61.33 42.99,61.67 42.99,61.98
             42.99,62.40 42.99,62.63 42.99,62.99
             42.99,63.33 43.00,63.73 43.00,64.00
             43.00,64.61 43.00,65.00 43.00,65.00
             43.00,65.00 43.50,65.00 44.01,65.00
             44.50,65.00 44.99,65.01 44.99,65.01
             44.99,65.01 45.00,65.55 45.00,65.99
             45.00,66.29 44.99,66.58 44.99,66.99
             44.99,67.32 44.99,67.64 44.99,68.01
             44.99,68.43 44.98,68.57 44.98,68.99
             44.98,69.34 44.99,69.70 44.99,70.02
             44.99,70.34 45.00,70.75 45.00,71.01
             45.00,71.60 45.00,71.99 45.00,71.99
             45.00,71.99 44.59,71.99 43.99,71.99
             43.70,71.99 43.33,72.00 43.00,72.00
             42.48,72.00 42.38,72.00 42.00,72.00
             41.65,72.00 41.00,72.00 41.00,72.00
             41.00,72.00 40.99,72.62 40.99,72.99
             40.99,73.33 40.98,73.54 40.98,73.99
             40.98,74.36 41.00,74.66 41.00,74.99
             41.00,75.61 41.00,76.00 41.00,76.00
             41.00,76.00 40.64,75.99 40.00,75.99
             39.70,75.99 39.34,76.00 38.99,76.00
             38.68,76.00 38.30,76.00 37.99,76.00
             37.67,76.00 37.27,76.00 37.00,76.00
             36.39,76.00 36.00,76.00 36.00,76.00
             36.00,76.00 36.00,76.44 36.00,76.98
             36.00,77.42 35.99,77.60 35.99,77.99
             35.99,78.39 36.00,79.00 36.00,79.00
             36.00,79.00 35.44,78.99 35.00,78.99
             34.65,78.99 34.54,78.99 33.97,78.99
             33.72,78.99 33.30,79.00 33.02,79.00
             32.71,79.00 32.28,79.00 31.94,79.00
             31.62,79.00 31.35,79.01 31.01,79.01
             30.68,79.01 30.35,79.00 30.00,79.00
             29.67,79.00 29.35,79.00 29.00,79.00
             28.67,79.00 28.35,79.01 28.01,79.01
             27.68,79.01 27.35,79.01 27.02,79.01
             26.69,79.01 26.33,79.00 26.00,79.00
             25.68,79.00 25.34,79.00 25.01,79.00
             24.67,79.00 24.35,79.00 24.01,79.00
             23.60,79.00 23.40,79.00 22.99,79.00
             22.64,79.00 22.34,78.99 21.99,78.99
             21.67,78.99 21.31,78.99 20.98,78.99
             20.65,78.99 20.32,79.00 19.99,79.00
             19.67,79.00 19.30,79.00 18.98,79.00
             18.65,79.00 18.32,78.99 17.99,78.99
             17.67,78.99 17.30,79.00 16.98,79.00
             16.66,79.00 16.32,79.00 16.00,79.00
             15.68,79.00 15.36,79.00 15.05,79.00
             14.72,79.00 14.40,79.00 14.09,79.00
             13.68,79.00 13.37,79.00 12.98,79.00
             12.64,79.00 12.32,79.00 12.01,79.00
             11.68,79.00 11.28,79.00 10.98,79.00
             10.55,79.00 10.35,79.00 10.00,79.00
             9.64,79.00 9.29,79.00 9.01,79.00
             8.40,78.99 8.00,79.00 8.00,79.00
             8.00,79.00 8.01,78.38 8.01,78.01
             8.01,77.67 8.00,77.46 8.00,77.00
             8.00,76.63 8.01,76.33 8.01,76.00
             8.01,75.40 8.00,75.00 8.00,75.00
             8.00,75.00 7.65,75.00 6.99,75.00
             6.75,75.00 6.28,74.99 6.00,74.99
             5.63,74.99 5.39,74.99 5.00,74.99
             4.64,74.99 4.34,74.99 4.00,74.99
             3.67,75.00 3.27,75.00 2.99,75.00
             2.39,75.00 2.00,75.00 2.00,75.00M 29.91,51.34
           C 29.91,51.34 29.98,51.10 29.75,51.79
             29.71,51.91 29.64,52.08 29.57,52.31
             29.49,52.54 29.41,52.76 29.36,52.91
             29.27,53.17 29.18,53.45 29.08,53.74
             28.99,54.01 28.90,54.29 28.80,54.59
             28.69,54.92 28.57,55.26 28.46,55.62
             28.36,55.90 28.27,56.19 28.17,56.49
             28.07,56.78 27.97,57.07 27.87,57.37
             27.77,57.67 27.67,57.95 27.57,58.26
             27.47,58.56 27.37,58.86 27.27,59.16
             27.18,59.42 27.10,59.67 27.02,59.92
             26.92,60.23 26.81,60.53 26.71,60.83
             26.62,61.12 26.52,61.41 26.42,61.70
             26.33,61.98 26.24,62.25 26.15,62.53
             26.03,62.87 25.92,63.21 25.81,63.54
             25.71,63.86 25.60,64.17 25.50,64.47
             25.40,64.76 25.31,65.05 25.22,65.33
             25.13,65.60 25.04,65.86 24.96,66.11
             24.85,66.42 24.81,66.56 24.72,66.83
             24.61,67.15 24.55,67.34 24.47,67.60
             24.36,67.93 24.28,68.13 24.22,68.32
             24.14,68.55 24.00,69.00 24.00,69.00
             24.00,69.00 23.37,69.00 23.00,69.00
             22.71,69.00 22.37,69.00 22.03,69.00
             21.53,69.00 21.39,69.00 21.00,69.00
             20.63,69.00 20.00,68.99 20.00,68.99
             20.00,68.99 19.97,68.98 19.73,68.29
             19.69,68.17 19.61,67.88 19.52,67.59
             19.43,67.32 19.35,67.05 19.30,66.90
             19.20,66.60 19.15,66.45 19.04,66.10
             18.93,65.77 18.81,65.42 18.68,65.05
             18.57,64.72 18.46,64.38 18.34,64.02
             18.23,63.69 18.12,63.36 18.00,63.01
             17.90,62.69 17.79,62.35 17.67,62.02
             17.56,61.69 17.45,61.36 17.34,61.02
             17.23,60.69 17.12,60.37 17.01,60.04
             16.90,59.71 16.79,59.38 16.68,59.05
             16.57,58.72 16.46,58.39 16.36,58.07
             16.22,57.66 16.09,57.26 15.95,56.87
             15.84,56.52 15.72,56.17 15.61,55.84
             15.51,55.52 15.40,55.21 15.30,54.91
             15.20,54.60 15.10,54.29 15.00,54.01
             14.86,53.58 14.72,53.18 14.61,52.83
             14.49,52.49 14.39,52.19 14.31,51.94
             14.11,51.34 14.00,51.00 14.00,51.00
             14.00,51.00 13.74,51.00 13.48,51.00
             13.24,51.00 13.00,51.00 13.00,51.00
             13.00,51.00 13.00,51.40 13.00,52.09
             13.00,52.33 13.00,52.61 13.00,52.91
             13.00,53.22 13.00,53.55 13.00,53.90
             13.00,54.23 13.00,54.58 13.00,54.95
             13.00,55.28 13.00,55.62 13.00,55.97
             13.00,56.30 13.00,56.66 13.00,57.01
             13.00,57.33 13.00,57.65 13.00,57.98
             13.00,58.31 13.00,58.64 13.00,58.98
             13.00,59.30 13.00,59.63 13.00,59.96
             13.00,60.29 13.00,60.61 13.00,60.93
             13.00,61.26 13.00,61.58 13.00,61.90
             13.00,62.31 13.00,62.72 13.00,63.12
             13.00,63.46 13.00,63.79 13.00,64.12
             13.00,64.45 13.00,64.77 13.00,65.08
             13.00,65.39 13.00,65.69 13.00,65.97
             13.00,66.40 13.00,66.80 13.00,67.16
             13.00,67.49 13.00,67.78 13.00,68.03
             13.00,68.64 13.00,69.00 13.00,69.00
             13.00,69.00 12.51,69.00 12.01,69.00
             11.51,69.00 11.00,69.00 11.00,69.00" />
</svg>
